<svg width="130" height="40" viewBox="0 0 130 40" fill="none" xmlns="http://www.w3.org/2000/svg">
<path d="M0.625 17.2849C0.625 14.4375 1.24519 11.9049 2.48558 9.68713C3.72596 7.44201 5.44872 5.7034 7.65385 4.47133C9.88654 3.21187 12.4087 2.58214 15.2202 2.58214C18.6657 2.58214 21.6151 3.48566 24.0683 5.29271C26.5215 7.09976 28.1615 9.56392 28.9885 12.6852H21.2154C20.6365 11.4805 19.8096 10.5633 18.7346 9.93354C17.6872 9.30381 16.4881 8.98895 15.1375 8.98895C12.9599 8.98895 11.1958 9.74189 9.8452 11.2478C8.49455 12.7536 7.81923 14.766 7.81923 17.2849C7.81923 19.8039 8.49455 21.8163 9.8452 23.3221C11.1958 24.828 12.9599 25.5809 15.1375 25.5809C16.4881 25.5809 17.6872 25.2661 18.7346 24.6363C19.8096 24.0066 20.6365 23.0894 21.2154 21.8847H28.9885C28.1615 25.006 26.5215 27.4701 24.0683 29.2772C21.6151 31.0568 18.6657 31.9467 15.2202 31.9467C12.4087 31.9467 9.88654 31.3306 7.65385 30.0986C5.44872 28.8391 3.72596 27.1005 2.48558 24.8828C1.24519 22.665 0.625 20.1324 0.625 17.2849Z" fill="#242A47"/>
<path d="M70.489 31.7413L64.4525 20.858H62.7573V31.7413H55.6871V2.91069H67.5535C69.8413 2.91069 71.7846 3.3077 73.3833 4.1017C75.0096 4.89571 76.2224 5.99089 77.0217 7.38724C77.8211 8.75622 78.2208 10.2895 78.2208 11.987C78.2208 13.9036 77.6695 15.6148 76.5669 17.1207C75.4919 18.6265 73.8932 19.6943 71.7708 20.3241L78.4689 31.7413H70.489ZM62.7573 15.8886H67.14C68.4355 15.8886 69.4003 15.5737 70.0342 14.944C70.6958 14.3143 71.0265 13.4244 71.0265 12.2745C71.0265 11.1793 70.6958 10.3169 70.0342 9.68713C69.4003 9.0574 68.4355 8.74253 67.14 8.74253H62.7573V15.8886Z" fill="#242A47"/>
<path d="M96.386 32.0288C93.6571 32.0288 91.1488 31.3991 88.8609 30.1396C86.6007 28.8802 84.7953 27.1279 83.4446 24.8828C82.1215 22.6103 81.46 20.064 81.46 17.2439C81.46 14.4238 82.1215 11.8912 83.4446 9.64606C84.7953 7.40094 86.6007 5.64865 88.8609 4.38919C91.1488 3.12973 93.6571 2.5 96.386 2.5C99.1148 2.5 101.609 3.12973 103.87 4.38919C106.157 5.64865 107.949 7.40094 109.245 9.64606C110.568 11.8912 111.229 14.4238 111.229 17.2439C111.229 20.064 110.568 22.6103 109.245 24.8828C107.922 27.1279 106.13 28.8802 103.87 30.1396C101.609 31.3991 99.1148 32.0288 96.386 32.0288ZM96.386 25.622C98.7013 25.622 100.548 24.8554 101.926 23.3221C103.332 21.7889 104.035 19.7628 104.035 17.2439C104.035 14.6976 103.332 12.6715 101.926 11.1656C100.548 9.63237 98.7013 8.86574 96.386 8.86574C94.043 8.86574 92.1686 9.61868 90.7629 11.1246C89.3847 12.6304 88.6956 14.6702 88.6956 17.2439C88.6956 19.7902 89.3847 21.8299 90.7629 23.3632C92.1686 24.8691 94.043 25.622 96.386 25.622Z" fill="#242A47"/>
<path d="M114.405 36.875V33.6519L121.556 27.9786C122.104 27.5313 122.578 27.1278 122.98 26.7681C123.381 26.4084 123.694 26.0438 123.919 25.6743C124.145 25.3048 124.257 24.8965 124.257 24.4492C124.257 23.7492 123.968 23.2095 123.391 22.8304C122.813 22.4512 122.113 22.2616 121.291 22.2616C120.41 22.2616 119.701 22.4755 119.162 22.9033C118.634 23.3214 118.369 23.929 118.369 24.7263H114.038C114.038 22.8595 114.723 21.3962 116.094 20.3364C117.464 19.2669 119.216 18.7322 121.35 18.7322C122.808 18.7322 124.076 18.985 125.153 19.4906C126.229 19.9864 127.062 20.6622 127.649 21.5178C128.246 22.3734 128.544 23.3311 128.544 24.3909C128.544 25.2465 128.363 26.0438 128.001 26.7827C127.649 27.5119 127.101 28.2314 126.357 28.9412C125.623 29.6412 124.673 30.3753 123.508 31.1434L120.895 33.0685V33.2289H128.75V36.875H114.405Z" fill="#242A47"/>
<path d="M51.125 2.86449H32.067V8.319H51.125V2.86449Z" fill="#242A47"/>
<path d="M51.125 14.4152H32.067V19.8697H51.125V14.4152Z" fill="#242A47"/>
<path d="M32.067 25.966H51.125V31.4205H32.067V25.966Z" fill="#242A47"/>
</svg>
