<svg width="16" height="16" viewBox="0 0 16 16" fill="none" xmlns="http://www.w3.org/2000/svg">
<path d="M16 8C16 12.4183 12.4183 16 8 16C3.58172 16 0 12.4183 0 8C0 3.58172 3.58172 0 8 0C12.4183 0 16 3.58172 16 8Z" fill="#FABE2C"/>
<path d="M14 8C14 11.3137 11.3137 14 8 14C4.68629 14 2 11.3137 2 8C2 4.68629 4.68629 2 8 2C11.3137 2 14 4.68629 14 8Z" fill="#FED843"/>
<path d="M4 8.00559C4 7.22984 4.17493 6.53986 4.52478 5.93566C4.87464 5.32401 5.36054 4.85035 5.98251 4.51469C6.61225 4.17156 7.32362 4 8.11662 4C9.08844 4 9.92031 4.24615 10.6122 4.73846C11.3042 5.23077 11.7668 5.9021 12 6.75245H9.80758C9.64432 6.42424 9.41108 6.17436 9.10787 6.0028C8.81244 5.83124 8.47425 5.74545 8.09329 5.74545C7.47911 5.74545 6.98154 5.95058 6.60058 6.36084C6.21963 6.7711 6.02915 7.31935 6.02915 8.00559C6.02915 8.69184 6.21963 9.24009 6.60058 9.65035C6.98154 10.0606 7.47911 10.2657 8.09329 10.2657C8.47425 10.2657 8.81244 10.18 9.10787 10.0084C9.41108 9.83683 9.64432 9.58695 9.80758 9.25874H12C11.7668 10.1091 11.3042 10.7804 10.6122 11.2727C9.92031 11.7576 9.08844 12 8.11662 12C7.32362 12 6.61225 11.8322 5.98251 11.4965C5.36054 11.1534 4.87464 10.6797 4.52478 10.0755C4.17493 9.47133 4 8.78135 4 8.00559Z" fill="#FF9100"/>
</svg>
