<svg width="24" height="24" viewBox="0 0 24 24" fill="none" xmlns="http://www.w3.org/2000/svg">
<path d="M16.24 7.76L16.9989 8.01298C17.0948 7.72551 17.02 7.40858 16.8057 7.19431C16.5914 6.98005 16.2745 6.90523 15.987 7.00105L16.24 7.76ZM14.12 14.12L14.373 14.8789C14.6119 14.7993 14.7993 14.6119 14.8789 14.373L14.12 14.12ZM7.76 16.24L7.00105 15.987C6.90523 16.2745 6.98005 16.5914 7.19431 16.8057C7.40858 17.02 7.72551 17.0948 8.01298 16.9989L7.76 16.24ZM9.88 9.88L9.62702 9.12105C9.38813 9.20068 9.20068 9.38813 9.12105 9.62702L9.88 9.88ZM21.2 12C21.2 17.081 17.081 21.2 12 21.2V22.8C17.9647 22.8 22.8 17.9647 22.8 12H21.2ZM12 21.2C6.91898 21.2 2.8 17.081 2.8 12H1.2C1.2 17.9647 6.03532 22.8 12 22.8V21.2ZM2.8 12C2.8 6.91898 6.91898 2.8 12 2.8V1.2C6.03532 1.2 1.2 6.03532 1.2 12H2.8ZM12 2.8C17.081 2.8 21.2 6.91898 21.2 12H22.8C22.8 6.03532 17.9647 1.2 12 1.2V2.8ZM15.4811 7.50702L13.3611 13.867L14.8789 14.373L16.9989 8.01298L15.4811 7.50702ZM13.867 13.3611L7.50702 15.4811L8.01298 16.9989L14.373 14.8789L13.867 13.3611ZM8.51895 16.493L10.6389 10.133L9.12105 9.62702L7.00105 15.987L8.51895 16.493ZM10.133 10.6389L16.493 8.51895L15.987 7.00105L9.62702 9.12105L10.133 10.6389Z" fill="#242A47"/>
</svg>
