<svg width="16" height="16" viewBox="0 0 16 16" fill="none" xmlns="http://www.w3.org/2000/svg">
<path d="M13.3334 8.00001V14.6667H2.66671V8.00001M8.00004 14.6667V4.66668M8.00004 4.66668H5.00004C4.55801 4.66668 4.13409 4.49108 3.82153 4.17852C3.50897 3.86596 3.33337 3.44204 3.33337 3.00001C3.33337 2.55798 3.50897 2.13406 3.82153 1.8215C4.13409 1.50894 4.55801 1.33334 5.00004 1.33334C7.33337 1.33334 8.00004 4.66668 8.00004 4.66668ZM8.00004 4.66668H11C11.4421 4.66668 11.866 4.49108 12.1786 4.17852C12.4911 3.86596 12.6667 3.44204 12.6667 3.00001C12.6667 2.55798 12.4911 2.13406 12.1786 1.8215C11.866 1.50894 11.4421 1.33334 11 1.33334C8.66671 1.33334 8.00004 4.66668 8.00004 4.66668ZM1.33337 4.66668H14.6667V8.00001H1.33337V4.66668Z" stroke="#7AF09B" stroke-width="1.2" stroke-linecap="round" stroke-linejoin="round"/>
</svg>
