<svg width="24" height="24" viewBox="0 0 24 24" fill="none" xmlns="http://www.w3.org/2000/svg">
<path d="M4.28577 9.42857L3.79461 8.79709C3.59974 8.94866 3.48577 9.1817 3.48577 9.42857H4.28577ZM12.0001 3.42857L12.4912 2.79709C12.2023 2.5724 11.7978 2.5724 11.5089 2.79709L12.0001 3.42857ZM19.7143 9.42857H20.5143C20.5143 9.1817 20.4004 8.94866 20.2055 8.79709L19.7143 9.42857ZM4.28577 18.8571H3.48577H4.28577ZM8.62862 20.5714C8.62862 21.0133 8.9868 21.3714 9.42862 21.3714C9.87045 21.3714 10.2286 21.0133 10.2286 20.5714H8.62862ZM9.42862 12V11.2C8.9868 11.2 8.62862 11.5582 8.62862 12H9.42862ZM14.5715 12H15.3715C15.3715 11.5582 15.0133 11.2 14.5715 11.2V12ZM13.7715 20.5714C13.7715 21.0133 14.1297 21.3714 14.5715 21.3714C15.0133 21.3714 15.3715 21.0133 15.3715 20.5714H13.7715ZM4.77692 10.0601L12.4912 4.06006L11.5089 2.79709L3.79461 8.79709L4.77692 10.0601ZM11.5089 4.06006L19.2232 10.0601L20.2055 8.79709L12.4912 2.79709L11.5089 4.06006ZM18.9143 9.42857V18.8571H20.5143V9.42857H18.9143ZM18.9143 18.8571C18.9143 19.0996 18.818 19.3322 18.6466 19.5036L19.7779 20.635C20.2494 20.1635 20.5143 19.524 20.5143 18.8571H18.9143ZM18.6466 19.5036C18.4751 19.6751 18.2425 19.7714 18.0001 19.7714V21.3714C18.6669 21.3714 19.3064 21.1065 19.7779 20.635L18.6466 19.5036ZM18.0001 19.7714H6.00005V21.3714H18.0001V19.7714ZM6.00005 19.7714C5.75757 19.7714 5.52502 19.6751 5.35355 19.5036L4.22218 20.635C4.6937 21.1065 5.33322 21.3714 6.00005 21.3714V19.7714ZM5.35355 19.5036C5.18209 19.3322 5.08577 19.0996 5.08577 18.8571H3.48577C3.48577 19.524 3.75066 20.1635 4.22218 20.635L5.35355 19.5036ZM5.08577 18.8571V9.42857H3.48577V18.8571H5.08577ZM10.2286 20.5714V12H8.62862V20.5714H10.2286ZM9.42862 12.8H14.5715V11.2H9.42862V12.8ZM13.7715 12V20.5714H15.3715V12H13.7715Z" fill="#242A47"/>
</svg>
