<svg width="48" height="48" viewBox="0 0 48 48" fill="none" xmlns="http://www.w3.org/2000/svg">
<path d="M42 20C42 34 24 46 24 46C24 46 6 34 6 20C6 15.2261 7.89642 10.6477 11.2721 7.27208C14.6477 3.89642 19.2261 2 24 2C28.7739 2 33.3523 3.89642 36.7279 7.27208C40.1036 10.6477 42 15.2261 42 20Z" fill="white" stroke="#7AF09B" stroke-width="2" stroke-linecap="round" stroke-linejoin="round"/>
<g clip-path="url(#clip0_460_1679)">
<path d="M28.0374 18.2084H28.7874C29.583 18.2084 30.3461 18.5244 30.9087 19.0871C31.4713 19.6497 31.7874 20.4127 31.7874 21.2084C31.7874 22.004 31.4713 22.7671 30.9087 23.3297C30.3461 23.8923 29.583 24.2084 28.7874 24.2084H28.0374" stroke="#7AF09B" stroke-width="1.2" stroke-linecap="round" stroke-linejoin="round"/>
<path d="M16.0374 18.2084H28.0374V24.9584C28.0374 25.754 27.7213 26.5171 27.1587 27.0797C26.5961 27.6423 25.833 27.9584 25.0374 27.9584H19.0374C18.2417 27.9584 17.4786 27.6423 16.916 27.0797C16.3534 26.5171 16.0374 25.754 16.0374 24.9584V18.2084Z" stroke="#7AF09B" stroke-width="1.2" stroke-linecap="round" stroke-linejoin="round"/>
<path d="M19.0374 12.9584V15.2084" stroke="#7AF09B" stroke-width="1.2" stroke-linecap="round" stroke-linejoin="round"/>
<path d="M22.0374 12.9584V15.2084" stroke="#7AF09B" stroke-width="1.2" stroke-linecap="round" stroke-linejoin="round"/>
<path d="M25.0374 12.9584V15.2084" stroke="#7AF09B" stroke-width="1.2" stroke-linecap="round" stroke-linejoin="round"/>
</g>
<defs>
<clipPath id="clip0_460_1679">
<rect width="18" height="18" fill="white" transform="translate(14.5374 12.2084)"/>
</clipPath>
</defs>
</svg>
