<svg width="48" height="48" viewBox="0 0 48 48" fill="none" xmlns="http://www.w3.org/2000/svg">
<path d="M42 20C42 34 24 46 24 46C24 46 6 34 6 20C6 15.2261 7.89642 10.6477 11.2721 7.27208C14.6477 3.89642 19.2261 2 24 2C28.7739 2 33.3523 3.89642 36.7279 7.27208C40.1036 10.6477 42 15.2261 42 20Z" fill="#7AF09B"/>
<g clip-path="url(#clip0_460_1687)">
<path d="M21.2874 29.7084C21.7016 29.7084 22.0374 29.3726 22.0374 28.9584C22.0374 28.5442 21.7016 28.2084 21.2874 28.2084C20.8731 28.2084 20.5374 28.5442 20.5374 28.9584C20.5374 29.3726 20.8731 29.7084 21.2874 29.7084Z" stroke="white" stroke-width="1.2" stroke-linecap="round" stroke-linejoin="round"/>
<path d="M29.5374 29.7084C29.9516 29.7084 30.2874 29.3726 30.2874 28.9584C30.2874 28.5442 29.9516 28.2084 29.5374 28.2084C29.1231 28.2084 28.7874 28.5442 28.7874 28.9584C28.7874 29.3726 29.1231 29.7084 29.5374 29.7084Z" stroke="white" stroke-width="1.2" stroke-linecap="round" stroke-linejoin="round"/>
<path d="M15.2874 13.9584H18.2874L20.2974 24.0009C20.3659 24.3462 20.5538 24.6563 20.828 24.8771C21.1022 25.0979 21.4454 25.2151 21.7974 25.2084H29.0874C29.4393 25.2151 29.7825 25.0979 30.0567 24.8771C30.3309 24.6563 30.5188 24.3462 30.5874 24.0009L31.7874 17.7084H19.0374" stroke="white" stroke-width="1.2" stroke-linecap="round" stroke-linejoin="round"/>
</g>
<defs>
<clipPath id="clip0_460_1687">
<rect width="18" height="18" fill="white" transform="translate(14.5374 13.2084)"/>
</clipPath>
</defs>
</svg>
