<svg width="32" height="32" viewBox="0 0 32 32" fill="none" xmlns="http://www.w3.org/2000/svg">
<rect width="32" height="32" rx="16" fill="#FFB131"/>
<path d="M21.3333 16.0002V22.6668H10.6667V16.0002M16 22.6668V12.6668M16 12.6668H13C12.558 12.6668 12.134 12.4912 11.8215 12.1787C11.5089 11.8661 11.3333 11.4422 11.3333 11.0002C11.3333 10.5581 11.5089 10.1342 11.8215 9.82165C12.134 9.50909 12.558 9.3335 13 9.3335C15.3333 9.3335 16 12.6668 16 12.6668ZM16 12.6668H19C19.442 12.6668 19.8659 12.4912 20.1785 12.1787C20.4911 11.8661 20.6667 11.4422 20.6667 11.0002C20.6667 10.5581 20.4911 10.1342 20.1785 9.82165C19.8659 9.50909 19.442 9.3335 19 9.3335C16.6667 9.3335 16 12.6668 16 12.6668ZM9.33333 12.6668H22.6667V16.0002H9.33333V12.6668Z" stroke="white" stroke-width="1.2" stroke-linecap="round" stroke-linejoin="round"/>
</svg>
