<svg width="16" height="16" viewBox="0 0 16 16" fill="none" xmlns="http://www.w3.org/2000/svg">
<g clip-path="url(#clip0_591_899)">
<path d="M8 16C12.4183 16 16 12.4183 16 8C16 3.58172 12.4183 0 8 0C3.58172 0 0 3.58172 0 8C0 12.4183 3.58172 16 8 16Z" fill="#00DF8E"/>
<path d="M7.99998 8.57141H4.4457C4.29414 8.57141 4.1488 8.51121 4.04164 8.40405C3.93447 8.29688 3.87427 8.15154 3.87427 7.99998C3.87427 7.84843 3.93447 7.70309 4.04164 7.59592C4.1488 7.48876 4.29414 7.42856 4.4457 7.42856H7.42855V3.55427C7.42855 3.40272 7.48876 3.25737 7.59592 3.15021C7.70309 3.04305 7.84843 2.98284 7.99998 2.98284C8.15154 2.98284 8.29688 3.04305 8.40404 3.15021C8.51121 3.25737 8.57141 3.40272 8.57141 3.55427V7.99998C8.57141 8.15154 8.51121 8.29688 8.40404 8.40405C8.29688 8.51121 8.15154 8.57141 7.99998 8.57141Z" fill="#BFFFC8"/>
</g>
<defs>
<clipPath id="clip0_591_899">
<rect width="16" height="16" fill="white"/>
</clipPath>
</defs>
</svg>
