<svg width="24" height="24" viewBox="0 0 24 24" fill="none" xmlns="http://www.w3.org/2000/svg">
<path d="M18.0571 19.7143C18.0571 20.1561 18.4153 20.5143 18.8571 20.5143C19.2989 20.5143 19.6571 20.1561 19.6571 19.7143H18.0571ZM15.4285 14.5714V13.7714V14.5714ZM8.57139 14.5714V13.7714V14.5714ZM5.14282 18H4.34282H5.14282ZM4.34282 19.7143C4.34282 20.1561 4.70099 20.5143 5.14282 20.5143C5.58465 20.5143 5.94282 20.1561 5.94282 19.7143H4.34282ZM19.6571 19.7143V18H18.0571V19.7143H19.6571ZM19.6571 18C19.6571 16.8785 19.2116 15.803 18.4186 15.01L17.2872 16.1413C17.7802 16.6343 18.0571 17.3029 18.0571 18H19.6571ZM18.4186 15.01C17.6256 14.2169 16.55 13.7714 15.4285 13.7714V15.3714C16.1257 15.3714 16.7943 15.6484 17.2872 16.1413L18.4186 15.01ZM15.4285 13.7714H8.57139V15.3714H15.4285V13.7714ZM8.57139 13.7714C7.44991 13.7714 6.37435 14.2169 5.58134 15.01L6.71271 16.1413C7.20567 15.6484 7.87425 15.3714 8.57139 15.3714V13.7714ZM5.58134 15.01C4.78833 15.803 4.34282 16.8785 4.34282 18H5.94282C5.94282 17.3029 6.21976 16.6343 6.71271 16.1413L5.58134 15.01ZM4.34282 18V19.7143H5.94282V18H4.34282ZM14.6285 7.71429C14.6285 9.16601 13.4517 10.3429 12 10.3429V11.9429C14.3353 11.9429 16.2285 10.0497 16.2285 7.71429H14.6285ZM12 10.3429C10.5482 10.3429 9.37139 9.16601 9.37139 7.71429H7.77139C7.77139 10.0497 9.66459 11.9429 12 11.9429V10.3429ZM9.37139 7.71429C9.37139 6.26257 10.5482 5.08572 12 5.08572V3.48572C9.66459 3.48572 7.77139 5.37892 7.77139 7.71429H9.37139ZM12 5.08572C13.4517 5.08572 14.6285 6.26257 14.6285 7.71429H16.2285C16.2285 5.37892 14.3353 3.48572 12 3.48572V5.08572Z" fill="#242A47"/>
</svg>
